solid OpenSCAD_Model
  facet normal -1 0 0
    outer loop
      vertex 0 60 8
      vertex 0 60 0
      vertex 0 10 8
    endloop
  endfacet
  facet normal -1 0 0
    outer loop
      vertex 0 0 0
      vertex 0 0 60
      vertex 0 10 8
    endloop
  endfacet
  facet normal -1 0 0
    outer loop
      vertex 0 0 0
      vertex 0 10 8
      vertex 0 60 0
    endloop
  endfacet
  facet normal -1 0 0
    outer loop
      vertex 0 10 8
      vertex 0 0 60
      vertex 0 10 60
    endloop
  endfacet
  facet normal 0 -1 0
    outer loop
      vertex 10 0 8
      vertex 0 0 0
      vertex 60 0 0
    endloop
  endfacet
  facet normal 0 -1 0
    outer loop
      vertex 10 0 8
      vertex 10 0 60
      vertex 0 0 60
    endloop
  endfacet
  facet normal 0 -1 0
    outer loop
      vertex 0 0 60
      vertex 0 0 0
      vertex 10 0 8
    endloop
  endfacet
  facet normal 0 -1 0
    outer loop
      vertex 60 0 8
      vertex 10 0 8
      vertex 60 0 0
    endloop
  endfacet
  facet normal 0 0 -1
    outer loop
      vertex 0 0 0
      vertex 0 60 0
      vertex 8 10 0
    endloop
  endfacet
  facet normal 0 0 -1
    outer loop
      vertex 60 8 0
      vertex 60 0 0
      vertex 10 8 0
    endloop
  endfacet
  facet normal 0 0 -1
    outer loop
      vertex 10 8 0
      vertex 8 10 0
      vertex 10 10 0
    endloop
  endfacet
  facet normal 0 0 -1
    outer loop
      vertex 0 0 0
      vertex 8 10 0
      vertex 10 8 0
    endloop
  endfacet
  facet normal 0 0 -1
    outer loop
      vertex 0 0 0
      vertex 10 8 0
      vertex 60 0 0
    endloop
  endfacet
  facet normal 0 0 -1
    outer loop
      vertex 8 10 0
      vertex 0 60 0
      vertex 8 60 0
    endloop
  endfacet
  facet normal 0 1 0
    outer loop
      vertex 0 60 0
      vertex 0 60 8
      vertex 8 60 0
    endloop
  endfacet
  facet normal 0 1 0
    outer loop
      vertex 8 60 0
      vertex 0 60 8
      vertex 8 60 8
    endloop
  endfacet
  facet normal 0 0 1
    outer loop
      vertex 0 60 8
      vertex 0 10 8
      vertex 8 10 8
    endloop
  endfacet
  facet normal 0 0 1
    outer loop
      vertex 8 60 8
      vertex 0 60 8
      vertex 8 10 8
    endloop
  endfacet
  facet normal 0 1 0
    outer loop
      vertex 0 10 8
      vertex 0 10 60
      vertex 8 10 8
    endloop
  endfacet
  facet normal 0 1 0
    outer loop
      vertex 8 10 8
      vertex 0 10 60
      vertex 10 10 60
    endloop
  endfacet
  facet normal 0 1 0
    outer loop
      vertex 8 10 8
      vertex 10 10 60
      vertex 10 10 0
    endloop
  endfacet
  facet normal 0 1 0
    outer loop
      vertex 8 10 8
      vertex 10 10 0
      vertex 8 10 0
    endloop
  endfacet
  facet normal 0 0 1
    outer loop
      vertex 0 10 60
      vertex 0 0 60
      vertex 10 0 60
    endloop
  endfacet
  facet normal 0 0 1
    outer loop
      vertex 10 10 60
      vertex 0 10 60
      vertex 10 0 60
    endloop
  endfacet
  facet normal 1 0 0
    outer loop
      vertex 10 0 60
      vertex 10 0 8
      vertex 10 8 8
    endloop
  endfacet
  facet normal 1 0 0
    outer loop
      vertex 10 10 0
      vertex 10 0 60
      vertex 10 8 8
    endloop
  endfacet
  facet normal 1 0 0
    outer loop
      vertex 10 8 0
      vertex 10 10 0
      vertex 10 8 8
    endloop
  endfacet
  facet normal 1 0 0
    outer loop
      vertex 10 10 0
      vertex 10 10 60
      vertex 10 0 60
    endloop
  endfacet
  facet normal 0 0 1
    outer loop
      vertex 10 8 8
      vertex 10 0 8
      vertex 60 0 8
    endloop
  endfacet
  facet normal 0 0 1
    outer loop
      vertex 60 8 8
      vertex 10 8 8
      vertex 60 0 8
    endloop
  endfacet
  facet normal 1 0 0
    outer loop
      vertex 60 0 8
      vertex 60 0 0
      vertex 60 8 0
    endloop
  endfacet
  facet normal 1 0 0
    outer loop
      vertex 60 8 8
      vertex 60 0 8
      vertex 60 8 0
    endloop
  endfacet
  facet normal 0 1 0
    outer loop
      vertex 10 8 0
      vertex 10 8 8
      vertex 60 8 0
    endloop
  endfacet
  facet normal 0 1 0
    outer loop
      vertex 60 8 0
      vertex 10 8 8
      vertex 60 8 8
    endloop
  endfacet
  facet normal 1 0 0
    outer loop
      vertex 8 10 8
      vertex 8 10 0
      vertex 8 60 0
    endloop
  endfacet
  facet normal 1 0 0
    outer loop
      vertex 8 60 8
      vertex 8 10 8
      vertex 8 60 0
    endloop
  endfacet
endsolid OpenSCAD_Model
